<svg data-v-fde0c5aa="" xmlns="http://www.w3.org/2000/svg" viewBox="0 0 300 300" class="font"><!----><defs data-v-fde0c5aa=""><!----></defs><rect data-v-fde0c5aa="" fill="#F9F5EC" x="0" y="0" width="300px" height="300px" class="logo-background-square"></rect><defs data-v-fde0c5aa=""><!----></defs><g data-v-fde0c5aa="" id="6356246c-fe28-4c4e-b301-1cd53bc41b3b" fill="#B3A09D" transform="matrix(3.1276654477062737,0,0,3.1276654477062737,38.56127386795584,133.67358701918357)"><path d="M7.66 10.26L7.66 8.72C7.46 8.79 7.24 8.86 7 8.86C6.68 8.86 6.54 8.74 6.54 8.39L6.54 6.06C6.54 4.45 5.25 3.54 3.32 3.54C2.63 3.54 1.88 3.70 1.12 3.88L1.12 6.13L1.72 6.13L2.39 5.19C2.73 5.15 3.02 5.12 3.32 5.12C4.21 5.12 4.66 5.50 4.66 6.06L4.66 6.24L3.18 6.24C1.46 6.24 0.46 7.15 0.46 8.34C0.46 9.55 1.46 10.44 3.18 10.44C3.88 10.44 4.55 10.22 5.08 9.91C5.38 10.26 5.89 10.44 6.54 10.44C6.92 10.44 7.36 10.36 7.66 10.26ZM4.66 8.64C4.21 8.90 3.67 9.04 3.18 9.04C2.60 9.04 2.34 8.79 2.34 8.34C2.34 7.91 2.60 7.64 3.18 7.64L4.66 7.64ZM11.44 10.26L11.44 9.66L10.46 8.96L10.46 0L8.60 0L8.60 10.26ZM15.26 10.26L15.26 9.66L14.28 8.96L14.28 0L12.42 0L12.42 10.26ZM22.48 7C22.48 4.96 21.25 3.54 19.12 3.54C17.01 3.54 15.76 4.96 15.76 7C15.76 9.03 17.01 10.44 19.12 10.44C21.25 10.44 22.48 9.03 22.48 7ZM20.52 7C20.52 8.22 20.02 8.86 19.12 8.86C18.24 8.86 17.72 8.22 17.72 7C17.72 5.77 18.24 5.12 19.12 5.12C20.02 5.12 20.52 5.77 20.52 7ZM28.74 8.20C28.74 6.78 27.78 6.10 26.08 6.10C25.54 6.10 25.31 5.91 25.31 5.64C25.31 5.38 25.55 5.12 26.36 5.12C26.68 5.12 27.02 5.15 27.38 5.21L28.04 6.13L28.66 6.13L28.66 3.89C27.90 3.68 27.20 3.54 26.36 3.54C24.43 3.54 23.42 4.66 23.42 5.78C23.42 7.21 24.40 7.88 26.08 7.88C26.64 7.88 26.85 8.09 26.85 8.34C26.85 8.61 26.61 8.86 25.80 8.86C25.14 8.86 24.33 8.74 23.52 8.51L23.52 10.09C24.28 10.30 24.98 10.44 25.80 10.44C27.75 10.44 28.74 9.32 28.74 8.20ZM34.82 10.26L34.82 8.68C34.50 8.81 34.13 8.86 33.70 8.86C33.01 8.86 32.58 8.50 32.58 7.92L32.58 5.32L34.82 5.32L34.82 3.72L32.58 3.72L32.58 1.72L30.72 2.00L30.72 3.72L29.32 3.72L29.32 5.32L30.72 5.32L30.72 7.92C30.72 9.46 31.92 10.44 33.70 10.44C34.08 10.44 34.50 10.37 34.82 10.26ZM43.04 10.26L43.04 8.72C42.84 8.79 42.62 8.86 42.38 8.86C42.06 8.86 41.92 8.74 41.92 8.39L41.92 6.06C41.92 4.45 40.63 3.54 38.70 3.54C38.01 3.54 37.25 3.70 36.50 3.88L36.50 6.13L37.10 6.13L37.77 5.19C38.11 5.15 38.40 5.12 38.70 5.12C39.59 5.12 40.04 5.50 40.04 6.06L40.04 6.24L38.56 6.24C36.83 6.24 35.84 7.15 35.84 8.34C35.84 9.55 36.83 10.44 38.56 10.44C39.26 10.44 39.93 10.22 40.46 9.91C40.75 10.26 41.27 10.44 41.92 10.44C42.29 10.44 42.74 10.36 43.04 10.26ZM40.04 8.64C39.59 8.90 39.05 9.04 38.56 9.04C37.98 9.04 37.72 8.79 37.72 8.34C37.72 7.91 37.98 7.64 38.56 7.64L40.04 7.64ZM48.64 10.26L48.64 8.68C48.31 8.81 47.95 8.86 47.52 8.86C46.83 8.86 46.40 8.50 46.40 7.92L46.40 5.32L48.64 5.32L48.64 3.72L46.40 3.72L46.40 1.72L44.53 2.00L44.53 3.72L43.13 3.72L43.13 5.32L44.53 5.32L44.53 7.92C44.53 9.46 45.74 10.44 47.52 10.44C47.89 10.44 48.31 10.37 48.64 10.26ZM56.01 7C56.01 4.93 54.89 3.54 52.88 3.54C50.90 3.54 49.66 4.93 49.66 7C49.66 9.14 51.09 10.44 53.49 10.44C54.14 10.44 54.87 10.30 55.45 10.09L55.45 8.51C54.85 8.71 54.19 8.86 53.49 8.86C52.50 8.86 51.76 8.50 51.59 7.64L55.97 7.64C56 7.43 56.01 7.22 56.01 7ZM54.17 6.16L51.62 6.16C51.73 5.45 52.23 5.01 52.88 5.01C53.54 5.01 54.04 5.38 54.17 6.16ZM62.36 10.15L62.36 8.57C61.78 8.75 61.21 8.86 60.58 8.86C59.51 8.86 58.90 8.32 58.90 7C58.90 5.67 59.51 5.12 60.58 5.12C60.73 5.12 60.89 5.14 61.04 5.15L61.75 6.13L62.36 6.13L62.36 3.84C61.88 3.68 61.14 3.54 60.58 3.54C58.25 3.54 56.94 4.89 56.94 7C56.94 9.10 58.25 10.44 60.58 10.44C61.14 10.44 61.88 10.30 62.36 10.15ZM70.80 10.26L70.80 9.66L69.82 8.96L69.82 6.06C69.82 4.52 68.61 3.54 66.84 3.54C66.47 3.54 66.05 3.63 65.72 3.72L65.72 0L63.85 0L63.85 10.26L65.72 10.26L65.72 5.26C66.04 5.18 66.43 5.12 66.84 5.12C67.52 5.12 67.96 5.49 67.96 6.06L67.96 10.26Z"></path></g><!----><!----></svg>